<svg width="105" height="104" viewBox="0 0 105 104" fill="none" xmlns="http://www.w3.org/2000/svg">
<path fill-rule="evenodd" clip-rule="evenodd" d="M1.34409 0C0.601768 0 0 0.601768 0 1.34409V1.49375C0 2.23607 0.601768 2.83784 1.34409 2.83784H1.49375C2.23607 2.83784 2.83784 2.23607 2.83784 1.49375V1.34409C2.83784 0.601768 2.23607 0 1.49375 0H1.34409ZM12.6954 0C11.9531 0 11.3513 0.601768 11.3513 1.34409V1.49375C11.3513 2.23607 11.9531 2.83784 12.6954 2.83784H12.8451C13.5874 2.83784 14.1892 2.23607 14.1892 1.49375V1.34409C14.1892 0.601768 13.5874 0 12.8451 0H12.6954ZM22.7029 1.34409C22.7029 0.601768 23.3046 0 24.047 0H24.1966C24.939 0 25.5407 0.601768 25.5407 1.34409V1.49375C25.5407 2.23607 24.939 2.83784 24.1966 2.83784H24.047C23.3046 2.83784 22.7029 2.23607 22.7029 1.49375V1.34409ZM35.398 0C34.6557 0 34.054 0.601768 34.054 1.34409V1.49375C34.054 2.23607 34.6557 2.83784 35.398 2.83784H35.5477C36.29 2.83784 36.8918 2.23607 36.8918 1.49375V1.34409C36.8918 0.601768 36.29 0 35.5477 0H35.398ZM45.4055 1.34409C45.4055 0.601768 46.0073 0 46.7496 0H46.8993C47.6416 0 48.2434 0.601768 48.2434 1.34409V1.49375C48.2434 2.23607 47.6416 2.83784 46.8993 2.83784H46.7496C46.0073 2.83784 45.4055 2.23607 45.4055 1.49375V1.34409ZM58.1009 0C57.3586 0 56.7568 0.601768 56.7568 1.34409V1.49375C56.7568 2.23607 57.3586 2.83784 58.1009 2.83784H58.2506C58.9929 2.83784 59.5947 2.23607 59.5947 1.49375V1.34409C59.5947 0.601768 58.9929 0 58.2506 0H58.1009ZM68.1083 1.34409C68.1083 0.601768 68.71 0 69.4524 0H69.602C70.3443 0 70.9461 0.601768 70.9461 1.34409V1.49375C70.9461 2.23607 70.3443 2.83784 69.602 2.83784H69.4524C68.71 2.83784 68.1083 2.23607 68.1083 1.49375V1.34409ZM80.8038 0C80.0615 0 79.4597 0.601768 79.4597 1.34409V1.49375C79.4597 2.23607 80.0615 2.83784 80.8038 2.83784H80.9535C81.6958 2.83784 82.2976 2.23607 82.2976 1.49375V1.34409C82.2976 0.601768 81.6958 0 80.9535 0H80.8038ZM90.8108 1.34409C90.8108 0.601768 91.4126 0 92.1549 0H92.3045C93.0469 0 93.6486 0.601768 93.6486 1.34409V1.49375C93.6486 2.23607 93.0469 2.83784 92.3045 2.83784H92.1549C91.4126 2.83784 90.8108 2.23607 90.8108 1.49375V1.34409ZM103.506 0C102.764 0 102.162 0.601768 102.162 1.34409V1.49375C102.162 2.23607 102.764 2.83784 103.506 2.83784H103.656C104.398 2.83784 105 2.23607 105 1.49375V1.34409C105 0.601768 104.398 0 103.656 0H103.506ZM0 12.6954C0 11.9531 0.601768 11.3513 1.34409 11.3513H1.49375C2.23607 11.3513 2.83784 11.9531 2.83784 12.6954V12.8451C2.83784 13.5874 2.23607 14.1892 1.49375 14.1892H1.34409C0.601768 14.1892 0 13.5874 0 12.8451V12.6954ZM12.6954 11.3513C11.9531 11.3513 11.3513 11.9531 11.3513 12.6954V12.8451C11.3513 13.5874 11.9531 14.1892 12.6954 14.1892H12.8451C13.5874 14.1892 14.1892 13.5874 14.1892 12.8451V12.6954C14.1892 11.9531 13.5874 11.3513 12.8451 11.3513H12.6954ZM22.7029 12.6954C22.7029 11.9531 23.3046 11.3513 24.047 11.3513H24.1966C24.939 11.3513 25.5407 11.9531 25.5407 12.6954V12.8451C25.5407 13.5874 24.939 14.1892 24.1966 14.1892H24.047C23.3046 14.1892 22.7029 13.5874 22.7029 12.8451V12.6954ZM35.398 11.3513C34.6557 11.3513 34.054 11.9531 34.054 12.6954V12.8451C34.054 13.5874 34.6557 14.1892 35.398 14.1892H35.5477C36.29 14.1892 36.8918 13.5874 36.8918 12.8451V12.6954C36.8918 11.9531 36.29 11.3513 35.5477 11.3513H35.398ZM45.4055 12.6954C45.4055 11.9531 46.0073 11.3513 46.7496 11.3513H46.8993C47.6416 11.3513 48.2434 11.9531 48.2434 12.6954V12.8451C48.2434 13.5874 47.6416 14.1892 46.8993 14.1892H46.7496C46.0073 14.1892 45.4055 13.5874 45.4055 12.8451V12.6954ZM58.1009 11.3513C57.3586 11.3513 56.7568 11.9531 56.7568 12.6954V12.8451C56.7568 13.5874 57.3586 14.1892 58.1009 14.1892H58.2506C58.9929 14.1892 59.5947 13.5874 59.5947 12.8451V12.6954C59.5947 11.9531 58.9929 11.3513 58.2506 11.3513H58.1009ZM68.1083 12.6954C68.1083 11.9531 68.71 11.3513 69.4524 11.3513H69.602C70.3443 11.3513 70.9461 11.9531 70.9461 12.6954V12.8451C70.9461 13.5874 70.3443 14.1892 69.602 14.1892H69.4524C68.71 14.1892 68.1083 13.5874 68.1083 12.8451V12.6954ZM80.8038 11.3513C80.0615 11.3513 79.4597 11.9531 79.4597 12.6954V12.8451C79.4597 13.5874 80.0615 14.1892 80.8038 14.1892H80.9535C81.6958 14.1892 82.2976 13.5874 82.2976 12.8451V12.6954C82.2976 11.9531 81.6958 11.3513 80.9535 11.3513H80.8038ZM90.8108 12.6954C90.8108 11.9531 91.4126 11.3513 92.1549 11.3513H92.3045C93.0469 11.3513 93.6486 11.9531 93.6486 12.6954V12.8451C93.6486 13.5874 93.0469 14.1892 92.3045 14.1892H92.1549C91.4126 14.1892 90.8108 13.5874 90.8108 12.8451V12.6954ZM103.506 11.3513C102.764 11.3513 102.162 11.9531 102.162 12.6954V12.8451C102.162 13.5874 102.764 14.1892 103.506 14.1892H103.656C104.398 14.1892 105 13.5874 105 12.8451V12.6954C105 11.9531 104.398 11.3513 103.656 11.3513H103.506ZM0 24.0467C0 23.3044 0.601768 22.7026 1.34409 22.7026H1.49375C2.23607 22.7026 2.83784 23.3044 2.83784 24.0467V24.1964C2.83784 24.9387 2.23607 25.5405 1.49375 25.5405H1.34409C0.601768 25.5405 0 24.9387 0 24.1964V24.0467ZM12.6954 22.7026C11.9531 22.7026 11.3513 23.3044 11.3513 24.0467V24.1964C11.3513 24.9387 11.9531 25.5405 12.6954 25.5405H12.8451C13.5874 25.5405 14.1892 24.9387 14.1892 24.1964V24.0467C14.1892 23.3044 13.5874 22.7026 12.8451 22.7026H12.6954ZM22.7029 24.0467C22.7029 23.3044 23.3046 22.7026 24.047 22.7026H24.1966C24.939 22.7026 25.5407 23.3044 25.5407 24.0467V24.1964C25.5407 24.9387 24.939 25.5405 24.1966 25.5405H24.047C23.3046 25.5405 22.7029 24.9387 22.7029 24.1964V24.0467ZM35.398 22.7026C34.6557 22.7026 34.054 23.3044 34.054 24.0467V24.1964C34.054 24.9387 34.6557 25.5405 35.398 25.5405H35.5477C36.29 25.5405 36.8918 24.9387 36.8918 24.1964V24.0467C36.8918 23.3044 36.29 22.7026 35.5477 22.7026H35.398ZM45.4055 24.0467C45.4055 23.3044 46.0073 22.7026 46.7496 22.7026H46.8993C47.6416 22.7026 48.2434 23.3044 48.2434 24.0467V24.1964C48.2434 24.9387 47.6416 25.5405 46.8993 25.5405H46.7496C46.0073 25.5405 45.4055 24.9387 45.4055 24.1964V24.0467ZM58.1009 22.7026C57.3586 22.7026 56.7568 23.3044 56.7568 24.0467V24.1964C56.7568 24.9387 57.3586 25.5405 58.1009 25.5405H58.2506C58.9929 25.5405 59.5947 24.9387 59.5947 24.1964V24.0467C59.5947 23.3044 58.9929 22.7026 58.2506 22.7026H58.1009ZM68.1083 24.0467C68.1083 23.3044 68.71 22.7026 69.4524 22.7026H69.602C70.3443 22.7026 70.9461 23.3044 70.9461 24.0467V24.1964C70.9461 24.9387 70.3443 25.5405 69.602 25.5405H69.4524C68.71 25.5405 68.1083 24.9387 68.1083 24.1964V24.0467ZM80.8038 22.7026C80.0615 22.7026 79.4597 23.3044 79.4597 24.0467V24.1964C79.4597 24.9387 80.0615 25.5405 80.8038 25.5405H80.9535C81.6958 25.5405 82.2976 24.9387 82.2976 24.1964V24.0467C82.2976 23.3044 81.6958 22.7026 80.9535 22.7026H80.8038ZM90.8108 24.0467C90.8108 23.3044 91.4126 22.7026 92.1549 22.7026H92.3045C93.0469 22.7026 93.6486 23.3044 93.6486 24.0467V24.1964C93.6486 24.9387 93.0469 25.5405 92.3045 25.5405H92.1549C91.4126 25.5405 90.8108 24.9387 90.8108 24.1964V24.0467ZM103.506 22.7026C102.764 22.7026 102.162 23.3044 102.162 24.0467V24.1964C102.162 24.9387 102.764 25.5405 103.506 25.5405H103.656C104.398 25.5405 105 24.9387 105 24.1964V24.0467C105 23.3044 104.398 22.7026 103.656 22.7026H103.506ZM0 35.398C0 34.6557 0.601768 34.054 1.34409 34.054H1.49375C2.23607 34.054 2.83784 34.6557 2.83784 35.398V35.5477C2.83784 36.29 2.23607 36.8918 1.49375 36.8918H1.34409C0.601768 36.8918 0 36.29 0 35.5477V35.398ZM12.6954 34.054C11.9531 34.054 11.3513 34.6557 11.3513 35.398V35.5477C11.3513 36.29 11.9531 36.8918 12.6954 36.8918H12.8451C13.5874 36.8918 14.1892 36.29 14.1892 35.5477V35.398C14.1892 34.6557 13.5874 34.054 12.8451 34.054H12.6954ZM22.7029 35.398C22.7029 34.6557 23.3046 34.054 24.047 34.054H24.1966C24.939 34.054 25.5407 34.6557 25.5407 35.398V35.5477C25.5407 36.29 24.939 36.8918 24.1966 36.8918H24.047C23.3046 36.8918 22.7029 36.29 22.7029 35.5477V35.398ZM35.398 34.054C34.6557 34.054 34.054 34.6557 34.054 35.398V35.5477C34.054 36.29 34.6557 36.8918 35.398 36.8918H35.5477C36.29 36.8918 36.8918 36.29 36.8918 35.5477V35.398C36.8918 34.6557 36.29 34.054 35.5477 34.054H35.398ZM45.4055 35.398C45.4055 34.6557 46.0073 34.054 46.7496 34.054H46.8993C47.6416 34.054 48.2434 34.6557 48.2434 35.398V35.5477C48.2434 36.29 47.6416 36.8918 46.8993 36.8918H46.7496C46.0073 36.8918 45.4055 36.29 45.4055 35.5477V35.398ZM58.1009 34.054C57.3586 34.054 56.7568 34.6557 56.7568 35.398V35.5477C56.7568 36.29 57.3586 36.8918 58.1009 36.8918H58.2506C58.9929 36.8918 59.5947 36.29 59.5947 35.5477V35.398C59.5947 34.6557 58.9929 34.054 58.2506 34.054H58.1009ZM68.1083 35.398C68.1083 34.6557 68.71 34.054 69.4524 34.054H69.602C70.3443 34.054 70.9461 34.6557 70.9461 35.398V35.5477C70.9461 36.29 70.3443 36.8918 69.602 36.8918H69.4524C68.71 36.8918 68.1083 36.29 68.1083 35.5477V35.398ZM80.8038 34.054C80.0615 34.054 79.4597 34.6557 79.4597 35.398V35.5477C79.4597 36.29 80.0615 36.8918 80.8038 36.8918H80.9535C81.6958 36.8918 82.2976 36.29 82.2976 35.5477V35.398C82.2976 34.6557 81.6958 34.054 80.9535 34.054H80.8038ZM90.8108 35.398C90.8108 34.6557 91.4126 34.054 92.1549 34.054H92.3045C93.0469 34.054 93.6486 34.6557 93.6486 35.398V35.5477C93.6486 36.29 93.0469 36.8918 92.3045 36.8918H92.1549C91.4126 36.8918 90.8108 36.29 90.8108 35.5477V35.398ZM103.506 34.054C102.764 34.054 102.162 34.6557 102.162 35.398V35.5477C102.162 36.29 102.764 36.8918 103.506 36.8918H103.656C104.398 36.8918 105 36.29 105 35.5477V35.398C105 34.6557 104.398 34.054 103.656 34.054H103.506ZM0 46.7496C0 46.0073 0.601768 45.4055 1.34409 45.4055H1.49375C2.23607 45.4055 2.83784 46.0073 2.83784 46.7496V46.8993C2.83784 47.6416 2.23607 48.2434 1.49375 48.2434H1.34409C0.601768 48.2434 0 47.6416 0 46.8993V46.7496ZM12.6954 45.4055C11.9531 45.4055 11.3513 46.0073 11.3513 46.7496V46.8993C11.3513 47.6416 11.9531 48.2434 12.6954 48.2434H12.8451C13.5874 48.2434 14.1892 47.6416 14.1892 46.8993V46.7496C14.1892 46.0073 13.5874 45.4055 12.8451 45.4055H12.6954ZM22.7029 46.7496C22.7029 46.0073 23.3046 45.4055 24.047 45.4055H24.1966C24.939 45.4055 25.5407 46.0073 25.5407 46.7496V46.8993C25.5407 47.6416 24.939 48.2434 24.1966 48.2434H24.047C23.3046 48.2434 22.7029 47.6416 22.7029 46.8993V46.7496ZM35.398 45.4055C34.6557 45.4055 34.054 46.0073 34.054 46.7496V46.8993C34.054 47.6416 34.6557 48.2434 35.398 48.2434H35.5477C36.29 48.2434 36.8918 47.6416 36.8918 46.8993V46.7496C36.8918 46.0073 36.29 45.4055 35.5477 45.4055H35.398ZM45.4055 46.7496C45.4055 46.0073 46.0073 45.4055 46.7496 45.4055H46.8993C47.6416 45.4055 48.2434 46.0073 48.2434 46.7496V46.8993C48.2434 47.6416 47.6416 48.2434 46.8993 48.2434H46.7496C46.0073 48.2434 45.4055 47.6416 45.4055 46.8993V46.7496ZM58.1009 45.4055C57.3586 45.4055 56.7568 46.0073 56.7568 46.7496V46.8993C56.7568 47.6416 57.3586 48.2434 58.1009 48.2434H58.2506C58.9929 48.2434 59.5947 47.6416 59.5947 46.8993V46.7496C59.5947 46.0073 58.9929 45.4055 58.2506 45.4055H58.1009ZM68.1083 46.7496C68.1083 46.0073 68.71 45.4055 69.4524 45.4055H69.602C70.3443 45.4055 70.9461 46.0073 70.9461 46.7496V46.8993C70.9461 47.6416 70.3443 48.2434 69.602 48.2434H69.4524C68.71 48.2434 68.1083 47.6416 68.1083 46.8993V46.7496ZM80.8038 45.4055C80.0615 45.4055 79.4597 46.0073 79.4597 46.7496V46.8993C79.4597 47.6416 80.0615 48.2434 80.8038 48.2434H80.9535C81.6958 48.2434 82.2976 47.6416 82.2976 46.8993V46.7496C82.2976 46.0073 81.6958 45.4055 80.9535 45.4055H80.8038ZM90.8108 46.7496C90.8108 46.0073 91.4126 45.4055 92.1549 45.4055H92.3045C93.0469 45.4055 93.6486 46.0073 93.6486 46.7496V46.8993C93.6486 47.6416 93.0469 48.2434 92.3045 48.2434H92.1549C91.4126 48.2434 90.8108 47.6416 90.8108 46.8993V46.7496ZM103.506 45.4055C102.764 45.4055 102.162 46.0073 102.162 46.7496V46.8993C102.162 47.6416 102.764 48.2434 103.506 48.2434H103.656C104.398 48.2434 105 47.6416 105 46.8993V46.7496C105 46.0073 104.398 45.4055 103.656 45.4055H103.506ZM0 58.1009C0 57.3586 0.601768 56.7568 1.34409 56.7568H1.49375C2.23607 56.7568 2.83784 57.3586 2.83784 58.1009V58.2506C2.83784 58.9929 2.23607 59.5947 1.49375 59.5947H1.34409C0.601768 59.5947 0 58.9929 0 58.2506V58.1009ZM12.6954 56.7568C11.9531 56.7568 11.3513 57.3586 11.3513 58.1009V58.2506C11.3513 58.9929 11.9531 59.5947 12.6954 59.5947H12.8451C13.5874 59.5947 14.1892 58.9929 14.1892 58.2506V58.1009C14.1892 57.3586 13.5874 56.7568 12.8451 56.7568H12.6954ZM22.7029 58.1009C22.7029 57.3586 23.3046 56.7568 24.047 56.7568H24.1966C24.939 56.7568 25.5407 57.3586 25.5407 58.1009V58.2506C25.5407 58.9929 24.939 59.5947 24.1966 59.5947H24.047C23.3046 59.5947 22.7029 58.9929 22.7029 58.2506V58.1009ZM35.398 56.7568C34.6557 56.7568 34.054 57.3586 34.054 58.1009V58.2506C34.054 58.9929 34.6557 59.5947 35.398 59.5947H35.5477C36.29 59.5947 36.8918 58.9929 36.8918 58.2506V58.1009C36.8918 57.3586 36.29 56.7568 35.5477 56.7568H35.398ZM45.4055 58.1009C45.4055 57.3586 46.0073 56.7568 46.7496 56.7568H46.8993C47.6416 56.7568 48.2434 57.3586 48.2434 58.1009V58.2506C48.2434 58.9929 47.6416 59.5947 46.8993 59.5947H46.7496C46.0073 59.5947 45.4055 58.9929 45.4055 58.2506V58.1009ZM58.1009 56.7568C57.3586 56.7568 56.7568 57.3586 56.7568 58.1009V58.2506C56.7568 58.9929 57.3586 59.5947 58.1009 59.5947H58.2506C58.9929 59.5947 59.5947 58.9929 59.5947 58.2506V58.1009C59.5947 57.3586 58.9929 56.7568 58.2506 56.7568H58.1009ZM68.1083 58.1009C68.1083 57.3586 68.71 56.7568 69.4524 56.7568H69.602C70.3443 56.7568 70.9461 57.3586 70.9461 58.1009V58.2506C70.9461 58.9929 70.3443 59.5947 69.602 59.5947H69.4524C68.71 59.5947 68.1083 58.9929 68.1083 58.2506V58.1009ZM80.8038 56.7568C80.0615 56.7568 79.4597 57.3586 79.4597 58.1009V58.2506C79.4597 58.9929 80.0615 59.5947 80.8038 59.5947H80.9535C81.6958 59.5947 82.2976 58.9929 82.2976 58.2506V58.1009C82.2976 57.3586 81.6958 56.7568 80.9535 56.7568H80.8038ZM90.8108 58.1009C90.8108 57.3586 91.4126 56.7568 92.1549 56.7568H92.3045C93.0469 56.7568 93.6486 57.3586 93.6486 58.1009V58.2506C93.6486 58.9929 93.0469 59.5947 92.3045 59.5947H92.1549C91.4126 59.5947 90.8108 58.9929 90.8108 58.2506V58.1009ZM103.506 56.7568C102.764 56.7568 102.162 57.3586 102.162 58.1009V58.2506C102.162 58.9929 102.764 59.5947 103.506 59.5947H103.656C104.398 59.5947 105 58.9929 105 58.2506V58.1009C105 57.3586 104.398 56.7568 103.656 56.7568H103.506ZM0 69.4522C0 68.7099 0.601768 68.1082 1.34409 68.1082H1.49375C2.23607 68.1082 2.83784 68.7099 2.83784 69.4522V69.6019C2.83784 70.3442 2.23607 70.946 1.49375 70.946H1.34409C0.601768 70.946 0 70.3442 0 69.6019V69.4522ZM1.34409 79.0562C0.601768 79.0562 0 79.6579 0 80.4002V80.5499C0 81.2922 0.601768 81.894 1.34409 81.894H1.49375C2.23607 81.894 2.83784 81.2922 2.83784 80.5499V80.4002C2.83784 79.6579 2.23607 79.0562 1.49375 79.0562H1.34409ZM0 91.3482C0 90.6059 0.601768 90.0042 1.34409 90.0042H1.49375C2.23607 90.0042 2.83784 90.6059 2.83784 91.3482V91.4979C2.83784 92.2402 2.23607 92.842 1.49375 92.842H1.34409C0.601768 92.842 0 92.2402 0 91.4979V91.3482ZM1.34409 100.952C0.601768 100.952 0 101.554 0 102.296V102.446C0 103.188 0.601768 103.79 1.34409 103.79H1.49375C2.23607 103.79 2.83784 103.188 2.83784 102.446V102.296C2.83784 101.554 2.23607 100.952 1.49375 100.952H1.34409ZM11.3513 69.4522C11.3513 68.7099 11.9531 68.1082 12.6954 68.1082H12.8451C13.5874 68.1082 14.1892 68.7099 14.1892 69.4522V69.6019C14.1892 70.3442 13.5874 70.946 12.8451 70.946H12.6954C11.9531 70.946 11.3513 70.3442 11.3513 69.6019V69.4522ZM12.6954 79.0562C11.9531 79.0562 11.3513 79.6579 11.3513 80.4002V80.5499C11.3513 81.2922 11.9531 81.894 12.6954 81.894H12.8451C13.5874 81.894 14.1892 81.2922 14.1892 80.5499V80.4002C14.1892 79.6579 13.5874 79.0562 12.8451 79.0562H12.6954ZM11.3513 91.3482C11.3513 90.6059 11.9531 90.0042 12.6954 90.0042H12.8451C13.5874 90.0042 14.1892 90.6059 14.1892 91.3482V91.4979C14.1892 92.2402 13.5874 92.842 12.8451 92.842H12.6954C11.9531 92.842 11.3513 92.2402 11.3513 91.4979V91.3482ZM12.6954 100.952C11.9531 100.952 11.3513 101.554 11.3513 102.296V102.446C11.3513 103.188 11.9531 103.79 12.6954 103.79H12.8451C13.5874 103.79 14.1892 103.188 14.1892 102.446V102.296C14.1892 101.554 13.5874 100.952 12.8451 100.952H12.6954ZM22.7029 69.4522C22.7029 68.7099 23.3046 68.1082 24.047 68.1082H24.1966C24.939 68.1082 25.5407 68.7099 25.5407 69.4522V69.6019C25.5407 70.3442 24.939 70.946 24.1966 70.946H24.047C23.3046 70.946 22.7029 70.3442 22.7029 69.6019V69.4522ZM24.047 79.0562C23.3046 79.0562 22.7029 79.6579 22.7029 80.4002V80.5499C22.7029 81.2922 23.3046 81.894 24.047 81.894H24.1966C24.939 81.894 25.5407 81.2922 25.5407 80.5499V80.4002C25.5407 79.6579 24.939 79.0562 24.1966 79.0562H24.047ZM22.7029 91.3482C22.7029 90.6059 23.3046 90.0042 24.047 90.0042H24.1966C24.939 90.0042 25.5407 90.6059 25.5407 91.3482V91.4979C25.5407 92.2402 24.939 92.842 24.1966 92.842H24.047C23.3046 92.842 22.7029 92.2402 22.7029 91.4979V91.3482ZM24.047 100.952C23.3046 100.952 22.7029 101.554 22.7029 102.296V102.446C22.7029 103.188 23.3046 103.79 24.047 103.79H24.1966C24.939 103.79 25.5407 103.188 25.5407 102.446V102.296C25.5407 101.554 24.939 100.952 24.1966 100.952H24.047ZM34.054 69.4522C34.054 68.7099 34.6557 68.1082 35.398 68.1082H35.5477C36.29 68.1082 36.8918 68.7099 36.8918 69.4522V69.6019C36.8918 70.3442 36.29 70.946 35.5477 70.946H35.398C34.6557 70.946 34.054 70.3442 34.054 69.6019V69.4522ZM35.398 79.0562C34.6557 79.0562 34.054 79.6579 34.054 80.4002V80.5499C34.054 81.2922 34.6557 81.894 35.398 81.894H35.5477C36.29 81.894 36.8918 81.2922 36.8918 80.5499V80.4002C36.8918 79.6579 36.29 79.0562 35.5477 79.0562H35.398ZM34.054 91.3482C34.054 90.6059 34.6557 90.0042 35.398 90.0042H35.5477C36.29 90.0042 36.8918 90.6059 36.8918 91.3482V91.4979C36.8918 92.2402 36.29 92.842 35.5477 92.842H35.398C34.6557 92.842 34.054 92.2402 34.054 91.4979V91.3482ZM35.398 100.952C34.6557 100.952 34.054 101.554 34.054 102.296V102.446C34.054 103.188 34.6557 103.79 35.398 103.79H35.5477C36.29 103.79 36.8918 103.188 36.8918 102.446V102.296C36.8918 101.554 36.29 100.952 35.5477 100.952H35.398ZM45.4055 69.4522C45.4055 68.7099 46.0073 68.1082 46.7496 68.1082H46.8993C47.6416 68.1082 48.2434 68.7099 48.2434 69.4522V69.6019C48.2434 70.3442 47.6416 70.946 46.8993 70.946H46.7496C46.0073 70.946 45.4055 70.3442 45.4055 69.6019V69.4522ZM46.7496 79.0562C46.0073 79.0562 45.4055 79.6579 45.4055 80.4002V80.5499C45.4055 81.2922 46.0073 81.894 46.7496 81.894H46.8993C47.6416 81.894 48.2434 81.2922 48.2434 80.5499V80.4002C48.2434 79.6579 47.6416 79.0562 46.8993 79.0562H46.7496ZM45.4055 91.3482C45.4055 90.6059 46.0073 90.0042 46.7496 90.0042H46.8993C47.6416 90.0042 48.2434 90.6059 48.2434 91.3482V91.4979C48.2434 92.2402 47.6416 92.842 46.8993 92.842H46.7496C46.0073 92.842 45.4055 92.2402 45.4055 91.4979V91.3482ZM46.7496 100.952C46.0073 100.952 45.4055 101.554 45.4055 102.296V102.446C45.4055 103.188 46.0073 103.79 46.7496 103.79H46.8993C47.6416 103.79 48.2434 103.188 48.2434 102.446V102.296C48.2434 101.554 47.6416 100.952 46.8993 100.952H46.7496ZM56.7568 69.4522C56.7568 68.7099 57.3586 68.1082 58.1009 68.1082H58.2506C58.9929 68.1082 59.5947 68.7099 59.5947 69.4522V69.6019C59.5947 70.3442 58.9929 70.946 58.2506 70.946H58.1009C57.3586 70.946 56.7568 70.3442 56.7568 69.6019V69.4522ZM58.1009 79.0562C57.3586 79.0562 56.7568 79.6579 56.7568 80.4002V80.5499C56.7568 81.2922 57.3586 81.894 58.1009 81.894H58.2506C58.9929 81.894 59.5947 81.2922 59.5947 80.5499V80.4002C59.5947 79.6579 58.9929 79.0562 58.2506 79.0562H58.1009ZM56.7568 91.3482C56.7568 90.6059 57.3586 90.0042 58.1009 90.0042H58.2506C58.9929 90.0042 59.5947 90.6059 59.5947 91.3482V91.4979C59.5947 92.2402 58.9929 92.842 58.2506 92.842H58.1009C57.3586 92.842 56.7568 92.2402 56.7568 91.4979V91.3482ZM58.1009 100.952C57.3586 100.952 56.7568 101.554 56.7568 102.296V102.446C56.7568 103.188 57.3586 103.79 58.1009 103.79H58.2506C58.9929 103.79 59.5947 103.188 59.5947 102.446V102.296C59.5947 101.554 58.9929 100.952 58.2506 100.952H58.1009ZM68.1083 69.4522C68.1083 68.7099 68.71 68.1082 69.4524 68.1082H69.602C70.3443 68.1082 70.9461 68.7099 70.9461 69.4522V69.6019C70.9461 70.3442 70.3443 70.946 69.602 70.946H69.4524C68.71 70.946 68.1083 70.3442 68.1083 69.6019V69.4522ZM69.4524 79.0562C68.71 79.0562 68.1083 79.6579 68.1083 80.4002V80.5499C68.1083 81.2922 68.71 81.894 69.4524 81.894H69.602C70.3443 81.894 70.9461 81.2922 70.9461 80.5499V80.4002C70.9461 79.6579 70.3443 79.0562 69.602 79.0562H69.4524ZM68.1083 91.3482C68.1083 90.6059 68.71 90.0042 69.4524 90.0042H69.602C70.3443 90.0042 70.9461 90.6059 70.9461 91.3482V91.4979C70.9461 92.2402 70.3443 92.842 69.602 92.842H69.4524C68.71 92.842 68.1083 92.2402 68.1083 91.4979V91.3482ZM69.4524 100.952C68.71 100.952 68.1083 101.554 68.1083 102.296V102.446C68.1083 103.188 68.71 103.79 69.4524 103.79H69.602C70.3443 103.79 70.9461 103.188 70.9461 102.446V102.296C70.9461 101.554 70.3443 100.952 69.602 100.952H69.4524ZM79.4597 69.4522C79.4597 68.7099 80.0615 68.1082 80.8038 68.1082H80.9535C81.6958 68.1082 82.2976 68.7099 82.2976 69.4522V69.6019C82.2976 70.3442 81.6958 70.946 80.9535 70.946H80.8038C80.0615 70.946 79.4597 70.3442 79.4597 69.6019V69.4522ZM80.8038 79.0562C80.0615 79.0562 79.4597 79.6579 79.4597 80.4002V80.5499C79.4597 81.2922 80.0615 81.894 80.8038 81.894H80.9535C81.6958 81.894 82.2976 81.2922 82.2976 80.5499V80.4002C82.2976 79.6579 81.6958 79.0562 80.9535 79.0562H80.8038ZM79.4597 91.3482C79.4597 90.6059 80.0615 90.0042 80.8038 90.0042H80.9535C81.6958 90.0042 82.2976 90.6059 82.2976 91.3482V91.4979C82.2976 92.2402 81.6958 92.842 80.9535 92.842H80.8038C80.0615 92.842 79.4597 92.2402 79.4597 91.4979V91.3482ZM80.8038 100.952C80.0615 100.952 79.4597 101.554 79.4597 102.296V102.446C79.4597 103.188 80.0615 103.79 80.8038 103.79H80.9535C81.6958 103.79 82.2976 103.188 82.2976 102.446V102.296C82.2976 101.554 81.6958 100.952 80.9535 100.952H80.8038ZM90.8108 69.4522C90.8108 68.7099 91.4126 68.1082 92.1549 68.1082H92.3045C93.0469 68.1082 93.6486 68.7099 93.6486 69.4522V69.6019C93.6486 70.3442 93.0469 70.946 92.3045 70.946H92.1549C91.4126 70.946 90.8108 70.3442 90.8108 69.6019V69.4522ZM92.1549 79.0562C91.4126 79.0562 90.8108 79.6579 90.8108 80.4002V80.5499C90.8108 81.2922 91.4126 81.894 92.1549 81.894H92.3045C93.0469 81.894 93.6486 81.2922 93.6486 80.5499V80.4002C93.6486 79.6579 93.0469 79.0562 92.3045 79.0562H92.1549ZM90.8108 91.3482C90.8108 90.6059 91.4126 90.0042 92.1549 90.0042H92.3045C93.0469 90.0042 93.6486 90.6059 93.6486 91.3482V91.4979C93.6486 92.2402 93.0469 92.842 92.3045 92.842H92.1549C91.4126 92.842 90.8108 92.2402 90.8108 91.4979V91.3482ZM92.1549 100.952C91.4126 100.952 90.8108 101.554 90.8108 102.296V102.446C90.8108 103.188 91.4126 103.79 92.1549 103.79H92.3045C93.0469 103.79 93.6486 103.188 93.6486 102.446V102.296C93.6486 101.554 93.0469 100.952 92.3045 100.952H92.1549ZM102.162 69.4522C102.162 68.7099 102.764 68.1082 103.506 68.1082H103.656C104.398 68.1082 105 68.7099 105 69.4522V69.6019C105 70.3442 104.398 70.946 103.656 70.946H103.506C102.764 70.946 102.162 70.3442 102.162 69.6019V69.4522ZM103.506 79.0562C102.764 79.0562 102.162 79.6579 102.162 80.4002V80.5499C102.162 81.2922 102.764 81.894 103.506 81.894H103.656C104.398 81.894 105 81.2922 105 80.5499V80.4002C105 79.6579 104.398 79.0562 103.656 79.0562H103.506ZM102.162 91.3482C102.162 90.6059 102.764 90.0042 103.506 90.0042H103.656C104.398 90.0042 105 90.6059 105 91.3482V91.4979C105 92.2402 104.398 92.842 103.656 92.842H103.506C102.764 92.842 102.162 92.2402 102.162 91.4979V91.3482ZM103.506 100.952C102.764 100.952 102.162 101.554 102.162 102.296V102.446C102.162 103.188 102.764 103.79 103.506 103.79H103.656C104.398 103.79 105 103.188 105 102.446V102.296C105 101.554 104.398 100.952 103.656 100.952H103.506Z" fill="white"/>
</svg>
